General
Unique ID                                : 240265465172092411296853242430541573352 (0xB4C17205958589A3A24CE1083E38ACE8)
Complete name                            : Tinker.Bell.Secret.of.the.Wings.2012.1080p.3D.HSBS.BluRay.x264.YIFY.GreekAudio.mkv
Format                                   : Matroska
Format version                           : Version 4 / Version 2
File size                                : 1.40 GiB
Duration                                 : 1h 11mn
Overall bit rate                         : 2 775 Kbps
Encoded date                             : UTC 2013-05-09 16:26:36
Writing application                      : mkvmerge v6.2.0 ('Promised Land') built on Apr 28 2013 12:22:01
Writing library                          : libebml v1.3.0 + libmatroska v1.4.0

Video

ID                                       : 1
Format                                   : AVC
Format/Info                              : Advanced Video Codec
Format profile                           : High@L4.0
Format settings, CABAC                   : Yes
Format settings, ReFrames                : 3 frames
Codec ID                                 : V_MPEG4/ISO/AVC
Duration                                 : 1h 11mn
Bit rate                                 : 2 476 Kbps
Width                                    : 1 920 pixels
Height                                   : 1 080 pixels
Display aspect ratio                     : 16:9
Frame rate mode                          : Constant
Frame rate                               : 25.000 fps
Original frame rate                      : 23.976 fps
Color space                              : YUV
Chroma subsampling                       : 4:2:0
Bit depth                                : 8 bits
Scan type                                : Progressive
Bits/(Pixel*Frame)                       : 0.048
Stream size                              : 1.27 GiB (91%)
Writing library                          : x264 core 125 r2200 999b753
Encoding settings                        : cabac=1 / ref=4 / deblock=1:0:0 / analyse=0x3:0x133 / me=umh / subme=9 / psy=1 / psy_rd=1.00:0.00 / mixed_ref=1 / me_range=16 / chroma_me=1 / trellis=2 / 8x8dct=1 / cqm=0 / deadzone=21,11 / fast_pskip=1 / chroma_qp_offset=-2 / threads=12 / lookahead_threads=2 / sliced_threads=0 / nr=0 / decimate=1 / interlaced=0 / bluray_compat=0 / constrained_intra=0 / bframes=8 / b_pyramid=1 / b_adapt=2 / b_bias=2 / direct=3 / weightb=1 / open_gop=0 / weightp=2 / keyint=240 / keyint_min=23 / scenecut=40 / intra_refresh=0 / rc_lookahead=60 / rc=2pass / mbtree=1 / bitrate=2476 / ratetol=1.0 / qcomp=0.60 / qpmin=10 / qpmax=51 / qpstep=4 / cplxblur=20.0 / qblur=0.5 / ip_ratio=1.40 / aq=1:1.00
Default                                  : Yes
Forced                                   : No

Audio

ID                                       : 2
Format                                   : MPEG Audio
Format version                           : Version 1
Format profile                           : Layer 3
Mode                                     : Joint stereo
Codec ID                                 : A_MPEG/L3
Codec ID/Hint                            : MP3
Duration                                 : 1h 11mn
Bit rate mode                            : Constant
Bit rate                                 : 192 Kbps
Channel(s)                               : 2 channels
Sampling rate                            : 48.0 KHz
Compression mode                         : Lossy
Stream size                              : 98.8 MiB (7%)
Writing library                          : LAME3.98.4
Default                                  : Yes
Forced                                   : No

